<svg id="Layer_1" data-name="Layer 1" xmlns="http://www.w3.org/2000/svg" viewBox="0 0 155 155"><defs><style>.cls-1,.cls-2{fill:none;stroke:#fff;stroke-width:3px;}.cls-1{stroke-miterlimit:10;}.cls-2{stroke-linecap:round;stroke-linejoin:round;}</style></defs><title>bulb</title><circle class="cls-1" cx="77.5" cy="77.5" r="75"/><path class="cls-2" d="M97.88,96.16a30.12,30.12,0,0,1,1.53-8,39.15,39.15,0,0,1,6.31-12.34A33.87,33.87,0,0,0,112,61.74a35,35,0,0,0,.08-12.94,34.12,34.12,0,0,0-6.58-15.13A35.12,35.12,0,0,0,72.39,20.19a35,35,0,0,0-14.13,5.36A33.75,33.75,0,0,0,50.9,32a35.29,35.29,0,0,0-6.71,11.85,34.11,34.11,0,0,0-1.78,12.34A36.3,36.3,0,0,0,50,76.82a38.07,38.07,0,0,1,6.68,15.42,57.79,57.79,0,0,1,.78,7.93,5.09,5.09,0,0,0,5.41,4.93c9,0,18,0,27,0A5.16,5.16,0,0,1,95,109.41a5,5,0,0,1-3.58,5.51,5.58,5.58,0,0,1-1.8.21q-11,0-22,0A4.7,4.7,0,0,0,63,118a4.91,4.91,0,0,0,.59,5.21,5,5,0,0,0,4.21,1.91c5.69,0,11.37,0,17.06,0a5.1,5.1,0,0,1,5.12,6,5.15,5.15,0,0,1-5.12,4c-5.05,0-10.1,0-15.15,0"/><line class="cls-2" x1="59.82" y1="74.5" x2="95.18" y2="39.14"/><line class="cls-2" x1="95.18" y1="74.5" x2="59.82" y2="39.14"/></svg>