<svg id="Layer_1" data-name="Layer 1" xmlns="http://www.w3.org/2000/svg" xmlns:xlink="http://www.w3.org/1999/xlink" viewBox="0 0 1764.19 857.99"><defs><radialGradient id="radial-gradient" cx="902.97" cy="408.05" r="611.07" gradientTransform="translate(-322 -241.5) scale(1.11 1.24)" gradientUnits="userSpaceOnUse"><stop offset="0" stop-color="#002932"/><stop offset="0.3" stop-color="#00242f"/><stop offset="0.65" stop-color="#001627"/><stop offset="1" stop-color="#00001b"/></radialGradient></defs><title>cocoon-bg-2</title><path d="M1255.81-154c-9.52-2-19.15-3.73-29-5a505,505,0,0,0-62.8-3.72c-307.13-.23-614.28,2.31-921.37-1.3-51.88-.61-101.62,3.57-148.82,15.33C-72.74-88.33-196.07,106.71-198.63,337.47c.14.62.35,1.22.45,1.85,39.44,243.52,251.39,403,465.36,338.87,99-29.66,192.81-81.88,287.9-126.7,84.48-39.82,167.23-40.79,251.34-.08,79.2,38.34,158.39,76.94,238.85,111.78,206,89.19,436.18-34,503.06-268.09,6.46-22.59,10.87-45.91,15.67-69.09C1557.35,93,1427.58-101.54,1255.81-154Z" transform="translate(199.41 164.81)" style="stroke:#231f20;stroke-miterlimit:10;stroke-width:1.55543684016329px;fill:url(#radial-gradient)"/><path d="M526,183.27l-9.61,11.28c-5.64-5.79-13.42-9.3-23.17-9.15-14,0-24.09,10.52-24.09,25.92s10.06,25.92,24.09,25.92c10.22,0,18.45-3.35,23.94-9.76l9.76,9.76c-7.32,9.61-19.06,15.09-34.46,15.09-24.09,0-40.86-16.62-40.86-41,0-24.55,16.77-41.32,40.86-41.32C507.12,170,518.55,174.74,526,183.27Z" transform="translate(199.41 164.81)" style="fill:#fff;opacity:0.4000000059604645"/><path d="M608.35,211.18c0,24.39-17.23,41.17-42.23,41.17-25.16,0-42.39-16.77-42.39-41.17,0-24.55,17.23-41.17,42.39-41.17C591.12,170,608.35,186.63,608.35,211.18Zm-67.08.15c0,15.7,10.21,26.38,24.85,26.38,14.48,0,24.7-10.67,24.7-26.38,0-15.55-10.22-26.22-24.7-26.22C551.48,185.1,541.26,195.78,541.26,211.33Z" transform="translate(199.41 164.81)" style="fill:#fff;opacity:0.6000000238418579"/><path d="M684.27,183.27l-9.61,11.28c-5.64-5.79-13.42-9.3-23.17-9.15-14,0-24.09,10.52-24.09,25.92s10.06,25.92,24.09,25.92c10.22,0,18.45-3.35,23.94-9.76l9.76,9.76c-7.32,9.61-19.06,15.09-34.46,15.09-24.09,0-40.86-16.62-40.86-41,0-24.55,16.77-41.32,40.86-41.32C665.37,170,676.8,174.74,684.27,183.27Z" transform="translate(199.41 164.81)" style="fill:#fff;opacity:0.800000011920929"/><path d="M766.6,211.18c0,24.39-17.23,41.17-42.23,41.17-25.16,0-42.38-16.77-42.38-41.17,0-24.55,17.23-41.17,42.38-41.17C749.37,170,766.6,186.63,766.6,211.18Zm-67.08.15c0,15.7,10.21,26.38,24.85,26.38,14.48,0,24.7-10.67,24.7-26.38,0-15.55-10.22-26.22-24.7-26.22C709.73,185.1,699.52,195.78,699.52,211.33Z" transform="translate(199.41 164.81)" style="fill:#fff"/><path d="M852.74,211.18c0,24.39-17.23,41.17-42.23,41.17-25.16,0-42.39-16.77-42.39-41.17,0-24.55,17.23-41.17,42.39-41.17C835.51,170,852.74,186.63,852.74,211.18Zm-67.08.15c0,15.7,10.21,26.38,24.85,26.38,14.48,0,24.7-10.67,24.7-26.38,0-15.55-10.21-26.22-24.7-26.22C795.87,185.1,785.66,195.78,785.66,211.33Z" transform="translate(199.41 164.81)" style="fill:#fff;opacity:0.800000011920929"/><path d="M933.39,201.27v50.47H915.86V206.14c0-12.2-7.32-19.67-19.52-19.67-13.42.15-21.8,9.45-23,22.11v43.15H855.79V170.62h17.53v15.55C879.11,174.89,889.48,170,903.2,170,922.11,170,933.39,181.9,933.39,201.27Z" transform="translate(199.41 164.81)" style="fill:#fff;opacity:0.6000000238418579"/><path d="M462,283.64v9.52h10.32v1.36H462v10.4h-1.65V282.28h13.57v1.36Z" transform="translate(199.41 164.81)" style="fill:#e6e6e6"/><path d="M479.94,283.52a1.21,1.21,0,0,1-.12.54,1.61,1.61,0,0,1-.31.44,1.45,1.45,0,0,1-.45.3,1.38,1.38,0,0,1-1.09,0,1.45,1.45,0,0,1-.45-.3,1.48,1.48,0,0,1-.3-.44,1.28,1.28,0,0,1-.11-.54,1.4,1.4,0,0,1,.11-.55,1.42,1.42,0,0,1,.3-.46,1.46,1.46,0,0,1,.45-.3,1.38,1.38,0,0,1,1.09,0,1.46,1.46,0,0,1,.45.3,1.54,1.54,0,0,1,.31.46A1.32,1.32,0,0,1,479.94,283.52Zm-.66,5.49v15.92h-1.52V289Z" transform="translate(199.41 164.81)" style="fill:#e6e6e6"/><path d="M486.16,291.79a9,9,0,0,1,2.55-2.21,6.36,6.36,0,0,1,3.22-.83,6,6,0,0,1,2.31.42,4.25,4.25,0,0,1,1.66,1.2,5.32,5.32,0,0,1,1,1.89,8.56,8.56,0,0,1,.34,2.5v10.18H495.7V294.75a5.45,5.45,0,0,0-1-3.51,3.77,3.77,0,0,0-3.12-1.27,5.65,5.65,0,0,0-2.9.79,8.19,8.19,0,0,0-2.41,2.2v12h-1.54V289h.85a.42.42,0,0,1,.46.4Z" transform="translate(199.41 164.81)" style="fill:#e6e6e6"/><path d="M514.69,281.64v23.28h-.83a.44.44,0,0,1-.48-.42l-.16-2.51a8.46,8.46,0,0,1-2.46,2.29,6,6,0,0,1-3.17.85,5.54,5.54,0,0,1-4.58-2q-1.63-2-1.63-6.1a11.23,11.23,0,0,1,.46-3.26,7.82,7.82,0,0,1,1.34-2.62,6.31,6.31,0,0,1,2.17-1.75,6.59,6.59,0,0,1,3-.64,6.19,6.19,0,0,1,2.8.59,5.86,5.86,0,0,1,2.06,1.76v-9.44Zm-1.52,10.78a5.45,5.45,0,0,0-2-1.94,6.1,6.1,0,0,0-5,0,4.85,4.85,0,0,0-1.77,1.45,6.52,6.52,0,0,0-1.07,2.24,10.77,10.77,0,0,0-.36,2.87q0,3.55,1.3,5.22A4.49,4.49,0,0,0,508,303.9a5.27,5.27,0,0,0,2.86-.82,7.78,7.78,0,0,0,2.29-2.29Z" transform="translate(199.41 164.81)" style="fill:#e6e6e6"/><path d="M540.69,289l-9.15,21a1.09,1.09,0,0,1-.25.37.62.62,0,0,1-.44.14h-1.09l2.8-6.22L525.83,289h1.26a.58.58,0,0,1,.58.38L533,301.77c.06.16.12.32.17.49s.09.33.14.5q.08-.26.17-.5l.18-.49,5.3-12.38a.69.69,0,0,1,.22-.28.53.53,0,0,1,.32-.1Z" transform="translate(199.41 164.81)" style="fill:#e6e6e6"/><path d="M549.81,288.75a7.65,7.65,0,0,1,3.06.58,6.25,6.25,0,0,1,2.28,1.66,7.35,7.35,0,0,1,1.42,2.58,12,12,0,0,1,0,6.76,7.35,7.35,0,0,1-1.42,2.58,6.16,6.16,0,0,1-2.28,1.65,8.44,8.44,0,0,1-6.13,0,6.23,6.23,0,0,1-2.29-1.65,7.27,7.27,0,0,1-1.42-2.58,12,12,0,0,1,0-6.76,7.27,7.27,0,0,1,1.42-2.58,6.32,6.32,0,0,1,2.29-1.66A7.65,7.65,0,0,1,549.81,288.75Zm0,15.18a5.91,5.91,0,0,0,2.49-.49,4.71,4.71,0,0,0,1.78-1.4,6.17,6.17,0,0,0,1.06-2.2,12,12,0,0,0,0-5.77,6.25,6.25,0,0,0-1.06-2.22,4.75,4.75,0,0,0-1.78-1.42,6.49,6.49,0,0,0-5,0,4.75,4.75,0,0,0-1.78,1.42,6.36,6.36,0,0,0-1.07,2.22,11.74,11.74,0,0,0,0,5.77,6.28,6.28,0,0,0,1.07,2.2,4.71,4.71,0,0,0,1.78,1.4A5.91,5.91,0,0,0,549.81,303.93Z" transform="translate(199.41 164.81)" style="fill:#e6e6e6"/><path d="M573.72,289v15.92h-.85a.43.43,0,0,1-.46-.42l-.14-2.37a9,9,0,0,1-2.55,2.21,6.35,6.35,0,0,1-3.22.83,6,6,0,0,1-2.32-.42,4.26,4.26,0,0,1-1.65-1.2,5.3,5.3,0,0,1-1-1.89,8.56,8.56,0,0,1-.34-2.5V289h1.54v10.18a5.45,5.45,0,0,0,1,3.51,3.77,3.77,0,0,0,3.12,1.27,5.65,5.65,0,0,0,2.9-.79,8.2,8.2,0,0,0,2.41-2.2V289Z" transform="translate(199.41 164.81)" style="fill:#e6e6e6"/><path d="M580.4,292.84a9.93,9.93,0,0,1,.84-1.74,5.52,5.52,0,0,1,1.09-1.29,4.48,4.48,0,0,1,1.38-.81,4.86,4.86,0,0,1,1.69-.28,5.41,5.41,0,0,1,1,.09,2.48,2.48,0,0,1,.85.31l-.13,1.06a.31.31,0,0,1-.3.26,2.37,2.37,0,0,1-.58-.11,3.87,3.87,0,0,0-1-.11,4.46,4.46,0,0,0-1.64.28,3.79,3.79,0,0,0-1.28.84,5.4,5.4,0,0,0-1,1.38,13.11,13.11,0,0,0-.78,1.9v10.3h-1.54V289h.82a.54.54,0,0,1,.38.11.65.65,0,0,1,.14.38Z" transform="translate(199.41 164.81)" style="fill:#e6e6e6"/><path d="M609,291.13l-.15.14a.32.32,0,0,1-.2.06.8.8,0,0,1-.43-.22,5.44,5.44,0,0,0-.74-.47,6.26,6.26,0,0,0-1.16-.47,6.48,6.48,0,0,0-4.13.27,4.92,4.92,0,0,0-1.8,1.4,6.23,6.23,0,0,0-1.11,2.21,10.43,10.43,0,0,0-.38,2.91,10.28,10.28,0,0,0,.39,3,6.32,6.32,0,0,0,1.11,2.18,4.72,4.72,0,0,0,1.74,1.35,5.43,5.43,0,0,0,2.27.46,5.88,5.88,0,0,0,1.93-.27,6.27,6.27,0,0,0,1.28-.59,5.34,5.34,0,0,0,.79-.59.8.8,0,0,1,.48-.27.39.39,0,0,1,.32.16l.4.51a4.69,4.69,0,0,1-.93.9,6.28,6.28,0,0,1-1.26.72,7.75,7.75,0,0,1-1.53.47,8.61,8.61,0,0,1-1.72.17,6.82,6.82,0,0,1-2.78-.55,6,6,0,0,1-2.16-1.6,7.49,7.49,0,0,1-1.41-2.57,11.95,11.95,0,0,1,0-6.78,7.43,7.43,0,0,1,1.41-2.59,6.36,6.36,0,0,1,2.26-1.69,7.4,7.4,0,0,1,3.06-.6,7.16,7.16,0,0,1,2.75.5,6.79,6.79,0,0,1,2.1,1.34Z" transform="translate(199.41 164.81)" style="fill:#e6e6e6"/><path d="M619.35,288.75a7.65,7.65,0,0,1,3.06.58,6.25,6.25,0,0,1,2.28,1.66,7.36,7.36,0,0,1,1.42,2.58,12,12,0,0,1,0,6.76,7.36,7.36,0,0,1-1.42,2.58,6.17,6.17,0,0,1-2.28,1.65,8.43,8.43,0,0,1-6.13,0,6.23,6.23,0,0,1-2.29-1.65,7.27,7.27,0,0,1-1.42-2.58,11.94,11.94,0,0,1,0-6.76A7.27,7.27,0,0,1,614,291a6.32,6.32,0,0,1,2.29-1.66A7.65,7.65,0,0,1,619.35,288.75Zm0,15.18a5.92,5.92,0,0,0,2.49-.49,4.72,4.72,0,0,0,1.78-1.4,6.18,6.18,0,0,0,1.06-2.2,12,12,0,0,0,0-5.77,6.27,6.27,0,0,0-1.06-2.22,4.76,4.76,0,0,0-1.78-1.42,6.49,6.49,0,0,0-5,0,4.75,4.75,0,0,0-1.78,1.42,6.36,6.36,0,0,0-1.07,2.22,11.75,11.75,0,0,0,0,5.77,6.28,6.28,0,0,0,1.07,2.2,4.71,4.71,0,0,0,1.78,1.4A5.91,5.91,0,0,0,619.35,303.93Z" transform="translate(199.41 164.81)" style="fill:#e6e6e6"/><path d="M641.6,291.13l-.15.14a.32.32,0,0,1-.2.06.8.8,0,0,1-.43-.22,5.44,5.44,0,0,0-.74-.47,6.26,6.26,0,0,0-1.16-.47,6.48,6.48,0,0,0-4.13.27,4.92,4.92,0,0,0-1.8,1.4,6.23,6.23,0,0,0-1.11,2.21,10.43,10.43,0,0,0-.38,2.91,10.28,10.28,0,0,0,.39,3,6.32,6.32,0,0,0,1.11,2.18,4.72,4.72,0,0,0,1.74,1.35,5.43,5.43,0,0,0,2.27.46,5.88,5.88,0,0,0,1.93-.27,6.27,6.27,0,0,0,1.28-.59,5.34,5.34,0,0,0,.79-.59.8.8,0,0,1,.48-.27.39.39,0,0,1,.32.16l.4.51a4.69,4.69,0,0,1-.93.9,6.28,6.28,0,0,1-1.26.72,7.75,7.75,0,0,1-1.53.47,8.61,8.61,0,0,1-1.72.17,6.82,6.82,0,0,1-2.78-.55,6,6,0,0,1-2.16-1.6,7.49,7.49,0,0,1-1.41-2.57,11.95,11.95,0,0,1,0-6.78,7.43,7.43,0,0,1,1.41-2.59,6.36,6.36,0,0,1,2.26-1.69,7.4,7.4,0,0,1,3.06-.6,7.16,7.16,0,0,1,2.75.5,6.79,6.79,0,0,1,2.1,1.34Z" transform="translate(199.41 164.81)" style="fill:#e6e6e6"/><path d="M652,288.75a7.65,7.65,0,0,1,3.06.58,6.25,6.25,0,0,1,2.28,1.66,7.36,7.36,0,0,1,1.42,2.58,12,12,0,0,1,0,6.76,7.36,7.36,0,0,1-1.42,2.58,6.17,6.17,0,0,1-2.28,1.65,8.43,8.43,0,0,1-6.13,0,6.23,6.23,0,0,1-2.29-1.65,7.27,7.27,0,0,1-1.42-2.58,11.94,11.94,0,0,1,0-6.76,7.27,7.27,0,0,1,1.42-2.58,6.32,6.32,0,0,1,2.29-1.66A7.65,7.65,0,0,1,652,288.75Zm0,15.18a5.92,5.92,0,0,0,2.49-.49,4.72,4.72,0,0,0,1.78-1.4,6.18,6.18,0,0,0,1.06-2.2,12,12,0,0,0,0-5.77,6.27,6.27,0,0,0-1.06-2.22,4.76,4.76,0,0,0-1.78-1.42,6.49,6.49,0,0,0-5,0,4.75,4.75,0,0,0-1.78,1.42,6.36,6.36,0,0,0-1.07,2.22,11.75,11.75,0,0,0,0,5.77,6.28,6.28,0,0,0,1.07,2.2,4.71,4.71,0,0,0,1.78,1.4A5.91,5.91,0,0,0,652,303.93Z" transform="translate(199.41 164.81)" style="fill:#e6e6e6"/><path d="M669.84,288.75a7.65,7.65,0,0,1,3.06.58,6.25,6.25,0,0,1,2.28,1.66,7.36,7.36,0,0,1,1.42,2.58,12,12,0,0,1,0,6.76,7.36,7.36,0,0,1-1.42,2.58,6.17,6.17,0,0,1-2.28,1.65,8.43,8.43,0,0,1-6.13,0,6.23,6.23,0,0,1-2.29-1.65,7.27,7.27,0,0,1-1.42-2.58,11.94,11.94,0,0,1,0-6.76,7.27,7.27,0,0,1,1.42-2.58,6.32,6.32,0,0,1,2.29-1.66A7.65,7.65,0,0,1,669.84,288.75Zm0,15.18a5.92,5.92,0,0,0,2.49-.49,4.72,4.72,0,0,0,1.78-1.4,6.18,6.18,0,0,0,1.06-2.2,12,12,0,0,0,0-5.77,6.27,6.27,0,0,0-1.06-2.22,4.76,4.76,0,0,0-1.78-1.42,6.49,6.49,0,0,0-5,0,4.75,4.75,0,0,0-1.78,1.42,6.36,6.36,0,0,0-1.07,2.22,11.75,11.75,0,0,0,0,5.77,6.28,6.28,0,0,0,1.07,2.2,4.71,4.71,0,0,0,1.78,1.4A5.91,5.91,0,0,0,669.84,303.93Z" transform="translate(199.41 164.81)" style="fill:#e6e6e6"/><path d="M682.85,291.79a9,9,0,0,1,2.55-2.21,6.36,6.36,0,0,1,3.22-.83,6,6,0,0,1,2.31.42,4.25,4.25,0,0,1,1.66,1.2,5.32,5.32,0,0,1,1,1.89,8.58,8.58,0,0,1,.34,2.5v10.18h-1.54V294.75a5.45,5.45,0,0,0-1-3.51,3.77,3.77,0,0,0-3.12-1.27,5.65,5.65,0,0,0-2.9.79,8.19,8.19,0,0,0-2.41,2.2v12H681.4V289h.85a.42.42,0,0,1,.46.4Z" transform="translate(199.41 164.81)" style="fill:#e6e6e6"/><path d="M707.23,291.26a9.25,9.25,0,0,1,2.62-1.89,7.31,7.31,0,0,1,3.12-.64,5.7,5.7,0,0,1,2.24.41,4.15,4.15,0,0,1,1.59,1.17,5.12,5.12,0,0,1,1,1.84,8.47,8.47,0,0,1,.32,2.41v10.37h-.61a.55.55,0,0,1-.59-.45l-.22-2a16.67,16.67,0,0,1-1.3,1.15,7.78,7.78,0,0,1-1.35.86,6.94,6.94,0,0,1-1.52.54,7.83,7.83,0,0,1-1.79.19,5.29,5.29,0,0,1-1.58-.24,4,4,0,0,1-1.37-.74,3.57,3.57,0,0,1-1-1.27,4.41,4.41,0,0,1-.36-1.86,3.31,3.31,0,0,1,.58-1.87,4.73,4.73,0,0,1,1.81-1.5,12,12,0,0,1,3.16-1,27.4,27.4,0,0,1,4.63-.45v-1.66a5.33,5.33,0,0,0-1-3.4,3.4,3.4,0,0,0-2.82-1.19,5.34,5.34,0,0,0-2,.32,7,7,0,0,0-1.37.7,8.7,8.7,0,0,0-.91.7,1,1,0,0,1-.59.32.48.48,0,0,1-.29-.08.71.71,0,0,1-.19-.21Zm9.36,6a29.87,29.87,0,0,0-3.91.36,11.27,11.27,0,0,0-2.7.76,4.05,4.05,0,0,0-1.58,1.14,2.41,2.41,0,0,0-.51,1.51,3.34,3.34,0,0,0,.26,1.38,2.72,2.72,0,0,0,.7,1,2.79,2.79,0,0,0,1,.55,4.08,4.08,0,0,0,1.2.18,6.82,6.82,0,0,0,1.7-.2,6.34,6.34,0,0,0,1.44-.56,7.09,7.09,0,0,0,1.24-.86q.58-.5,1.14-1.07Z" transform="translate(199.41 164.81)" style="fill:#e6e6e6"/><path d="M744.16,289l-5.31,15.92h-1.14c-.18,0-.3-.11-.37-.34L733,291.66q-.08-.24-.14-.48t-.11-.48a6.37,6.37,0,0,1-.24,1l-4.42,12.93q-.1.34-.38.34h-1.09L721.3,289h1.15a.56.56,0,0,1,.37.12.58.58,0,0,1,.19.26l4,12.56q.1.37.18.71t.13.68l.19-.68q.1-.34.22-.71L732,289.28a.44.44,0,0,1,.45-.35h.62a.45.45,0,0,1,.46.35l4.22,12.67.21.7q.1.34.18.67c0-.22.09-.45.14-.67s.11-.46.18-.7l4-12.56a.58.58,0,0,1,.21-.28.56.56,0,0,1,.34-.1Z" transform="translate(199.41 164.81)" style="fill:#e6e6e6"/><path d="M747,291.26a9.25,9.25,0,0,1,2.62-1.89,7.31,7.31,0,0,1,3.12-.64,5.7,5.7,0,0,1,2.24.41,4.15,4.15,0,0,1,1.59,1.17,5.12,5.12,0,0,1,1,1.84,8.47,8.47,0,0,1,.32,2.41v10.37h-.61a.55.55,0,0,1-.59-.45l-.22-2a16.67,16.67,0,0,1-1.3,1.15,7.78,7.78,0,0,1-1.35.86,6.94,6.94,0,0,1-1.52.54,7.83,7.83,0,0,1-1.79.19,5.29,5.29,0,0,1-1.58-.24,4,4,0,0,1-1.37-.74,3.57,3.57,0,0,1-1-1.27,4.41,4.41,0,0,1-.36-1.86,3.31,3.31,0,0,1,.58-1.87,4.73,4.73,0,0,1,1.81-1.5,12,12,0,0,1,3.16-1,27.4,27.4,0,0,1,4.63-.45v-1.66a5.33,5.33,0,0,0-1-3.4,3.4,3.4,0,0,0-2.82-1.19,5.34,5.34,0,0,0-2,.32,7,7,0,0,0-1.37.7,8.7,8.7,0,0,0-.91.7,1,1,0,0,1-.59.32.48.48,0,0,1-.29-.08.71.71,0,0,1-.19-.21Zm9.36,6a29.87,29.87,0,0,0-3.91.36,11.27,11.27,0,0,0-2.7.76,4.05,4.05,0,0,0-1.58,1.14,2.41,2.41,0,0,0-.51,1.51,3.34,3.34,0,0,0,.26,1.38,2.72,2.72,0,0,0,.7,1,2.79,2.79,0,0,0,1,.55,4.08,4.08,0,0,0,1.2.18,6.82,6.82,0,0,0,1.7-.2,6.34,6.34,0,0,0,1.44-.56,7.09,7.09,0,0,0,1.24-.86q.58-.5,1.14-1.07Z" transform="translate(199.41 164.81)" style="fill:#e6e6e6"/><path d="M775.49,289l-9.15,21a1.08,1.08,0,0,1-.25.37.62.62,0,0,1-.44.14h-1.09l2.8-6.22L760.63,289h1.26a.58.58,0,0,1,.38.12.59.59,0,0,1,.19.26l5.36,12.38c.06.16.12.32.17.49s.09.33.14.5q.08-.26.17-.5c.06-.17.12-.33.18-.49l5.3-12.38a.69.69,0,0,1,.22-.28.53.53,0,0,1,.32-.1Z" transform="translate(199.41 164.81)" style="fill:#e6e6e6"/><path d="M787.52,304.92V290.67l-2.24-.14q-.45,0-.45-.4v-.62h2.69v-2a7.42,7.42,0,0,1,.35-2.39,4.72,4.72,0,0,1,1-1.72,4,4,0,0,1,1.54-1,5.48,5.48,0,0,1,2-.34,5.81,5.81,0,0,1,1,.09,4.52,4.52,0,0,1,.9.25l0,.74a.23.23,0,0,1-.14.18.76.76,0,0,1-.3,0l-.5,0a5.52,5.52,0,0,0-.7,0,4.37,4.37,0,0,0-1.45.23,2.82,2.82,0,0,0-1.14.74,3.46,3.46,0,0,0-.74,1.34,6.68,6.68,0,0,0-.26,2v2h5.17v1.14h-5.12v14.29Z" transform="translate(199.41 164.81)" style="fill:#e6e6e6"/><path d="M798.93,292.84a9.93,9.93,0,0,1,.84-1.74,5.52,5.52,0,0,1,1.09-1.29,4.48,4.48,0,0,1,1.38-.81,4.86,4.86,0,0,1,1.69-.28,5.41,5.41,0,0,1,1,.09,2.48,2.48,0,0,1,.85.31l-.13,1.06a.31.31,0,0,1-.3.26,2.37,2.37,0,0,1-.58-.11,3.87,3.87,0,0,0-1-.11,4.46,4.46,0,0,0-1.64.28,3.79,3.79,0,0,0-1.28.84,5.4,5.4,0,0,0-1,1.38,13.11,13.11,0,0,0-.78,1.9v10.3h-1.54V289h.82a.54.54,0,0,1,.38.11.65.65,0,0,1,.14.38Z" transform="translate(199.41 164.81)" style="fill:#e6e6e6"/><path d="M814.2,288.75a7.65,7.65,0,0,1,3.06.58,6.25,6.25,0,0,1,2.28,1.66,7.36,7.36,0,0,1,1.42,2.58,12,12,0,0,1,0,6.76,7.36,7.36,0,0,1-1.42,2.58,6.17,6.17,0,0,1-2.28,1.65,8.43,8.43,0,0,1-6.13,0,6.23,6.23,0,0,1-2.29-1.65,7.27,7.27,0,0,1-1.42-2.58,11.94,11.94,0,0,1,0-6.76,7.27,7.27,0,0,1,1.42-2.58,6.32,6.32,0,0,1,2.29-1.66A7.65,7.65,0,0,1,814.2,288.75Zm0,15.18a5.92,5.92,0,0,0,2.49-.49,4.72,4.72,0,0,0,1.78-1.4,6.18,6.18,0,0,0,1.06-2.2,12,12,0,0,0,0-5.77,6.27,6.27,0,0,0-1.06-2.22,4.76,4.76,0,0,0-1.78-1.42,6.49,6.49,0,0,0-5,0,4.75,4.75,0,0,0-1.78,1.42,6.36,6.36,0,0,0-1.07,2.22,11.75,11.75,0,0,0,0,5.77,6.28,6.28,0,0,0,1.07,2.2,4.71,4.71,0,0,0,1.78,1.4A5.91,5.91,0,0,0,814.2,303.93Z" transform="translate(199.41 164.81)" style="fill:#e6e6e6"/><path d="M825.75,304.92V289h.85a.42.42,0,0,1,.46.4l.14,2.3a8.3,8.3,0,0,1,2.13-2.14,4.7,4.7,0,0,1,2.7-.82,3.86,3.86,0,0,1,2.79,1,5.23,5.23,0,0,1,1.42,2.8,5.54,5.54,0,0,1,.81-1.7,5,5,0,0,1,1.19-1.19,4.81,4.81,0,0,1,1.46-.7,6,6,0,0,1,1.62-.22,5.51,5.51,0,0,1,2.13.39,4.19,4.19,0,0,1,1.6,1.16,5.34,5.34,0,0,1,1,1.89,8.54,8.54,0,0,1,.35,2.56v10.18H844.9V294.75a5.47,5.47,0,0,0-1-3.56A3.52,3.52,0,0,0,841,290a4.25,4.25,0,0,0-1.59.3,3.85,3.85,0,0,0-1.34.9,4.33,4.33,0,0,0-.93,1.5,5.78,5.78,0,0,0-.34,2.08v10.18h-1.54V294.75a5.86,5.86,0,0,0-.92-3.55,3.15,3.15,0,0,0-2.7-1.23,4.12,4.12,0,0,0-2.4.77,7.31,7.31,0,0,0-2,2.13v12.06Z" transform="translate(199.41 164.81)" style="fill:#e6e6e6"/><path d="M861.73,291.69a9,9,0,0,1,2.52-2.14,6.35,6.35,0,0,1,3.18-.8,6,6,0,0,1,2.31.42,4.25,4.25,0,0,1,1.66,1.2,5.32,5.32,0,0,1,1,1.89,8.58,8.58,0,0,1,.34,2.5v10.18h-1.54V294.75a5.45,5.45,0,0,0-1-3.51A3.77,3.77,0,0,0,867,290a5.65,5.65,0,0,0-2.9.79,8.19,8.19,0,0,0-2.41,2.2v12h-1.54V281.64h1.54Z" transform="translate(199.41 164.81)" style="fill:#e6e6e6"/><path d="M884.1,288.75a7.65,7.65,0,0,1,3.06.58,6.25,6.25,0,0,1,2.28,1.66,7.36,7.36,0,0,1,1.42,2.58,12,12,0,0,1,0,6.76,7.36,7.36,0,0,1-1.42,2.58,6.17,6.17,0,0,1-2.28,1.65,8.43,8.43,0,0,1-6.13,0,6.23,6.23,0,0,1-2.29-1.65,7.27,7.27,0,0,1-1.42-2.58,11.94,11.94,0,0,1,0-6.76,7.27,7.27,0,0,1,1.42-2.58,6.32,6.32,0,0,1,2.29-1.66A7.65,7.65,0,0,1,884.1,288.75Zm0,15.18a5.92,5.92,0,0,0,2.49-.49,4.72,4.72,0,0,0,1.78-1.4,6.18,6.18,0,0,0,1.06-2.2,12,12,0,0,0,0-5.77,6.27,6.27,0,0,0-1.06-2.22,4.76,4.76,0,0,0-1.78-1.42,6.49,6.49,0,0,0-5,0,4.75,4.75,0,0,0-1.78,1.42,6.36,6.36,0,0,0-1.07,2.22,11.75,11.75,0,0,0,0,5.77,6.28,6.28,0,0,0,1.07,2.2,4.71,4.71,0,0,0,1.78,1.4A5.91,5.91,0,0,0,884.1,303.93Z" transform="translate(199.41 164.81)" style="fill:#e6e6e6"/><path d="M895.65,304.92V289h.85a.42.42,0,0,1,.46.4l.14,2.3a8.3,8.3,0,0,1,2.13-2.14,4.7,4.7,0,0,1,2.7-.82,3.86,3.86,0,0,1,2.79,1,5.23,5.23,0,0,1,1.42,2.8,5.54,5.54,0,0,1,.81-1.7,5,5,0,0,1,1.19-1.19,4.81,4.81,0,0,1,1.46-.7,6,6,0,0,1,1.62-.22,5.51,5.51,0,0,1,2.13.39,4.19,4.19,0,0,1,1.6,1.16,5.34,5.34,0,0,1,1,1.89,8.54,8.54,0,0,1,.35,2.56v10.18H914.8V294.75a5.47,5.47,0,0,0-1-3.56,3.52,3.52,0,0,0-2.88-1.22,4.25,4.25,0,0,0-1.59.3,3.85,3.85,0,0,0-1.34.9,4.33,4.33,0,0,0-.93,1.5,5.78,5.78,0,0,0-.34,2.08v10.18h-1.54V294.75a5.86,5.86,0,0,0-.92-3.55,3.15,3.15,0,0,0-2.7-1.23,4.12,4.12,0,0,0-2.4.77,7.31,7.31,0,0,0-2,2.13v12.06Z" transform="translate(199.41 164.81)" style="fill:#e6e6e6"/><path d="M922,296.33v.3a10.8,10.8,0,0,0,.42,3.15,6.46,6.46,0,0,0,1.18,2.28,4.88,4.88,0,0,0,1.86,1.38,6.14,6.14,0,0,0,2.43.46,7.28,7.28,0,0,0,2.08-.26,7.77,7.77,0,0,0,1.48-.59,8.2,8.2,0,0,0,1-.59,1.08,1.08,0,0,1,.51-.26.37.37,0,0,1,.32.16l.42.51a4.36,4.36,0,0,1-1,.9,7.23,7.23,0,0,1-1.41.71,10.29,10.29,0,0,1-1.66.47,9.16,9.16,0,0,1-1.78.18,7.58,7.58,0,0,1-3-.57,6.3,6.3,0,0,1-2.3-1.66,7.54,7.54,0,0,1-1.48-2.66,11.5,11.5,0,0,1-.52-3.61,9.82,9.82,0,0,1,.49-3.16,7.24,7.24,0,0,1,1.41-2.5,6.41,6.41,0,0,1,2.26-1.64,7.41,7.41,0,0,1,3-.59,6.61,6.61,0,0,1,2.5.46,5.65,5.65,0,0,1,2,1.35,6.35,6.35,0,0,1,1.34,2.18,8.41,8.41,0,0,1,.49,3,.85.85,0,0,1-.1.48.37.37,0,0,1-.32.13Zm10.62-1a6.84,6.84,0,0,0-.36-2.3,4.86,4.86,0,0,0-1-1.72,4.44,4.44,0,0,0-1.56-1.08,5.15,5.15,0,0,0-2-.38,6,6,0,0,0-2.21.38,4.82,4.82,0,0,0-1.69,1.1,5.52,5.52,0,0,0-1.14,1.73,8,8,0,0,0-.58,2.26Z" transform="translate(199.41 164.81)" style="fill:#e6e6e6"/></svg>