<svg id="Layer_1" data-name="Layer 1" xmlns="http://www.w3.org/2000/svg" xmlns:xlink="http://www.w3.org/1999/xlink" viewBox="0 0 1331.16 647.58"><defs><radialGradient id="radial-gradient" cx="903.41" cy="497.46" r="460.94" gradientTransform="translate(-322 -241.5) scale(1.11 1.24)" gradientUnits="userSpaceOnUse"><stop offset="0" stop-color="#002932"/><stop offset="0.3" stop-color="#00242f"/><stop offset="0.65" stop-color="#001627"/><stop offset="1" stop-color="#00001b"/></radialGradient></defs><title>cocoon-bg</title><path d="M1115.49,59.56c-7.18-1.51-14.45-2.81-21.88-3.75A380.94,380.94,0,0,0,1046.24,53c-231.68-.17-463.37,1.74-695-1-39.14-.46-76.66,2.7-112.26,11.56C113.33,109.07,20.3,256.2,18.37,430.26c.1.47.26.92.34,1.39,29.75,183.69,189.63,304,351,255.62,74.7-22.37,145.44-61.76,217.17-95.57,63.73-30,126.14-30.77,189.6-.06,59.74,28.92,119.48,58,180.17,84.32,155.4,67.28,329-25.68,379.47-202.23,4.87-17,8.2-34.63,11.82-52.11C1342.95,245.85,1245.06,99.11,1115.49,59.56Z" transform="translate(-17.59 -51.19)" style="stroke:#231f20;stroke-miterlimit:10;stroke-width:1.55543684016329px;fill:url(#radial-gradient)"/></svg>