<svg id="Layer_1" data-name="Layer 1" xmlns="http://www.w3.org/2000/svg" viewBox="0 0 155 155"><defs><style>.cls-1,.cls-2{fill:none;stroke:#fff;stroke-miterlimit:10;stroke-width:3px;}.cls-2{stroke-linecap:round;}</style></defs><title>dawn</title><circle class="cls-1" cx="77.5" cy="77.5" r="75" transform="translate(-4.79 149.89) rotate(-86.34)"/><g id="dawn"><path class="cls-2" d="M101.62,77.63a24.82,24.82,0,1,0-41.12,19l33.08-.43A24.76,24.76,0,0,0,101.62,77.63Z"/><line class="cls-2" x1="93.58" y1="96.24" x2="60.5" y2="96.68"/><line class="cls-2" x1="27.78" y1="96.68" x2="127.22" y2="96.68"/><line class="cls-2" x1="43.51" y1="46.96" x2="53.55" y2="57"/><line class="cls-2" x1="100.79" y1="56.24" x2="110.83" y2="46.2"/><line class="cls-2" x1="77.5" y1="46.96" x2="77.5" y2="32.75"/><line class="cls-2" x1="110.17" y1="81.05" x2="124.38" y2="81.05"/><line class="cls-2" x1="29.2" y1="79.63" x2="43.4" y2="79.63"/><line class="cls-2" x1="39.14" y1="109.46" x2="115.86" y2="109.46"/><line class="cls-2" x1="56.19" y1="122.25" x2="98.81" y2="122.25"/></g></svg>