<svg id="Layer_1" data-name="Layer 1" xmlns="http://www.w3.org/2000/svg" xmlns:xlink="http://www.w3.org/1999/xlink" viewBox="0 0 648 864"><defs><style>.cls-1,.cls-15,.cls-16{fill:none;}.cls-2{fill:#231f20;}.cls-15,.cls-16,.cls-2{stroke:#fff;}.cls-16,.cls-2{stroke-miterlimit:10;}.cls-3{fill:url(#radial-gradient);}.cls-4,.cls-7{fill:#fff;}.cls-5{clip-path:url(#clip-path);}.cls-6{opacity:0.88;fill:url(#radial-gradient-2);}.cls-7{font-size:36px;font-family:Montserrat-Light, Montserrat;}.cls-10,.cls-8{letter-spacing:-0.09em;}.cls-8{opacity:0.4;}.cls-11,.cls-9{letter-spacing:-0.06em;}.cls-13,.cls-9{opacity:0.6;}.cls-10,.cls-12{opacity:0.8;}.cls-12{letter-spacing:-0.1em;}.cls-14{opacity:0.9;}.cls-15{stroke-linecap:round;stroke-linejoin:round;}.cls-15,.cls-16{stroke-width:3px;}</style><radialGradient id="radial-gradient" cx="324.24" cy="447.04" r="220.83" gradientUnits="userSpaceOnUse"><stop offset="0" stop-color="#002932"/><stop offset="0.3" stop-color="#00242f"/><stop offset="0.65" stop-color="#001627"/><stop offset="1" stop-color="#00001b"/></radialGradient><clipPath id="clip-path"><rect class="cls-1" x="171.71" y="172.52" width="304.83" height="247.35"/></clipPath><radialGradient id="radial-gradient-2" cx="335" cy="261.82" fy="154.56935008710764" r="191.67" gradientUnits="userSpaceOnUse"><stop offset="0.04" stop-color="#f37777"/><stop offset="0.15" stop-color="#ec7678"/><stop offset="0.33" stop-color="#d8747a"/><stop offset="0.53" stop-color="#b7717d"/><stop offset="0.76" stop-color="#8a6d81"/><stop offset="1" stop-color="#546886"/></radialGradient></defs><title>mockup2</title><g id="white-noise"><path d="M148.06,440.07q0-159.81-.1-319.63c0-18.34,10.82-32.59,24.35-37.81,4.23-1.63,8.93-2.07,13.43-3a17.19,17.19,0,0,1,3.31-.08q135.09,0,270.18-.09c18.3,0,32.51,10.88,37.73,24.49,1.59,4.14,2,8.73,2.89,13.14a20.89,20.89,0,0,1,.09,3.91q0,319.33.11,638.66c0,20.9-14.51,37.41-33,40.37a45.75,45.75,0,0,1-7.2.47c-90.46,0-180.92-.1-271.38.11-19.77,0-36.76-13.77-39.88-32.84a58.08,58.08,0,0,1-.5-9.31Q148,599.28,148.06,440.07Zm350.47,0q0-159.8,0-319.61C498.53,97.4,482.09,81,459,81q-14.93,0-29.85,0-120.31,0-240.61,0c-22.18,0-39.07,16.6-39.07,38.42q0,320.51,0,641a40.73,40.73,0,0,0,.89,8.67c4,18.09,19.18,30,38.18,30.05q135.53,0,271.06,0c22.36,0,38.92-16.72,38.92-39.19Q498.54,600,498.53,440.05Z"/><path class="cls-2" d="M498.53,440.05q0,160,0,319.91c0,22.47-16.56,39.18-38.92,39.19q-135.53,0-271.06,0c-19,0-34.2-12-38.18-30.05a40.73,40.73,0,0,1-.89-8.67q-.06-320.51,0-641c0-21.82,16.89-38.42,39.07-38.42q120.31,0,240.61,0,14.93,0,29.85,0c23.11,0,39.54,16.43,39.54,39.47Q498.54,280.25,498.53,440.05ZM170.16,172.89V720.65H477.92V172.89Zm153.3,618.62a29,29,0,1,0-28.91-29.26A29,29,0,0,0,323.46,791.51Zm.27-665.32c-8.33,0-16.67,0-25,0-2.84,0-4.56,1.65-4.64,4.07a4,4,0,0,0,4.32,4.32q25.3.07,50.61,0c2.6,0,4.15-1.37,4.31-4s-1.51-4.19-4.3-4.4c-.7-.05-1.41,0-2.11,0Zm-47.5,5.07a7.06,7.06,0,1,0-7.15,7A7,7,0,0,0,276.22,131.26ZM325.16,102a5.48,5.48,0,0,0-5.46,5.25,5.45,5.45,0,1,0,10.91,0A5.38,5.38,0,0,0,325.16,102Z"/><path d="M170.16,172.89H477.92V720.65H170.16Zm1.56,546.46c1.14.06,2.11.14,3.09.14q149.26,0,298.52.07c2.91,0,3.44-.95,3.44-3.6q-.08-269-.05-537.93c0-1.16,0-2.33,0-3.51h-305Z"/><path d="M323.46,791.51a29,29,0,1,1,29.21-28.66A28.93,28.93,0,0,1,323.46,791.51Zm.19-1.42c15.11-.07,27.73-12.75,27.61-27.74s-12.86-27.65-27.85-27.5a27.62,27.62,0,0,0,.25,55.24Z"/><path d="M323.72,126.18h23.2c.7,0,1.41,0,2.11,0,2.79.21,4.45,1.88,4.3,4.4s-1.71,4-4.31,4q-25.3,0-50.61,0a4,4,0,0,1-4.32-4.32c.08-2.42,1.8-4.05,4.64-4.07C307.06,126.14,315.39,126.18,323.72,126.18Zm.23,1.56q-12,0-24.09,0c-2,0-4.22.05-4.24,2.63s2.25,2.86,4.38,2.86q23.64,0,47.28,0c2.09,0,4.46,0,4.55-2.7s-2.3-2.78-4.38-2.78Z"/><path d="M276.22,131.26a7.06,7.06,0,1,1-7-7.18A7,7,0,0,1,276.22,131.26Zm-7-5.69a5.6,5.6,0,1,0,5.55,5.6A5.75,5.75,0,0,0,269.24,125.57Z"/><path d="M325.16,102a5.38,5.38,0,0,1,5.44,5.24,5.45,5.45,0,1,1-10.91,0A5.48,5.48,0,0,1,325.16,102Zm4,5.31c-.35-2.36-1.7-3.71-4-3.83a3.84,3.84,0,0,0-3.82,4.16,3.62,3.62,0,0,0,4.07,3.54C327.81,111.08,328.85,109.51,329.12,107.31Z"/><path class="cls-3" d="M171.72,719.35V174.52h305c0,1.19,0,2.35,0,3.51q0,269,.05,537.93c0,2.65-.53,3.6-3.44,3.6q-149.26-.12-298.52-.07C173.83,719.49,172.85,719.4,171.72,719.35Z"/><path class="cls-4" d="M323.65,790.09a27.62,27.62,0,0,1-.25-55.24c15-.15,27.73,12.43,27.85,27.5S338.76,790,323.65,790.09Zm-.09-3.63a24,24,0,1,0-24-24A24.22,24.22,0,0,0,323.56,786.46Z"/><path class="cls-4" d="M324,127.74h23.49c2.09,0,4.47,0,4.38,2.78s-2.46,2.7-4.55,2.7q-23.64,0-47.28,0c-2.13,0-4.4-.14-4.38-2.86s2.24-2.63,4.24-2.63Q311.91,127.76,324,127.74Z"/><path class="cls-4" d="M269.24,125.57a5.6,5.6,0,1,1-5.72,5.43A5.75,5.75,0,0,1,269.24,125.57Z"/><path class="cls-4" d="M329.12,107.31c-.27,2.21-1.31,3.78-3.75,3.88a3.62,3.62,0,0,1-4.07-3.54,3.84,3.84,0,0,1,3.82-4.16C327.42,103.6,328.77,104.94,329.12,107.31Z"/><path d="M323.56,786.46a24,24,0,1,1,24.09-23.94A24.12,24.12,0,0,1,323.56,786.46Zm.16-1.62a22.39,22.39,0,1,0-22.53-22.25A22.39,22.39,0,0,0,323.72,784.84Z"/><path class="cls-4" d="M323.72,784.84a22.39,22.39,0,1,1,22.33-22.48A22.33,22.33,0,0,1,323.72,784.84Z"/><g class="cls-5"><path class="cls-6" d="M482.55,168.83c-2.63-.56-5.3-1-8-1.38a139.71,139.71,0,0,0-17.37-1c-85-.06-169.94.64-254.89-.36-14.35-.17-28.11,1-41.17,4.24C115,187,80.9,240.94,80.19,304.78c0,.17.1.34.12.51C91.22,372.66,149.86,416.76,209.05,399c27.39-8.2,53.34-22.65,79.64-35.05,23.37-11,46.26-11.29,69.53,0,21.91,10.61,43.82,21.29,66.08,30.92,57,24.67,120.67-9.42,139.17-74.16,1.79-6.25,3-12.7,4.34-19.11C566,237.15,530.07,183.33,482.55,168.83Z"/></g><text class="cls-7" transform="translate(265.9 296.22)"><tspan class="cls-8">c</tspan><tspan class="cls-9" x="16.9" y="0">o</tspan><tspan class="cls-10" x="36.98" y="0">c</tspan><tspan class="cls-11" x="53.88" y="0">o</tspan><tspan class="cls-12" x="73.96" y="0">o</tspan><tspan class="cls-13" x="92.6" y="0">n</tspan></text><g id="rain2" class="cls-14"><path class="cls-15" d="M286.72,493a2.57,2.57,0,0,1-1.41.26c-9.15.21-16.38,4-21.6,11.57a25.89,25.89,0,0,0,.3,29.8,25.61,25.61,0,0,0,21.81,11.09c24.17,0,48.35.06,72.52,0a29.82,29.82,0,0,0,20.44-8.08,29.35,29.35,0,0,0,8.35-12.72,30.17,30.17,0,0,0-4.13-28c-4.5-6.43-10.81-10.31-18.37-12.22-.92-.23-1.89-.25-2.82-.41a1.94,1.94,0,0,1-1.67-1.79,31.31,31.31,0,0,0-2.44-7.59,38.77,38.77,0,0,0-5.63-8.89,36.08,36.08,0,0,0-10.6-8.54,35.44,35.44,0,0,0-13-4A37.69,37.69,0,0,0,314,454.54a36.18,36.18,0,0,0-13.88,7.35,35.74,35.74,0,0,0-8.89,11.18A37.06,37.06,0,0,0,287.6,484a44.59,44.59,0,0,0-.5,7.46,9.46,9.46,0,0,1-.24,1.54"/><path class="cls-15" d="M346.13,581.34c-.54-.13-.69.26-.91.64-1.83,3.18-3.67,6.36-5.54,9.51a2.55,2.55,0,0,0-.24,1.3"/><path class="cls-15" d="M313.34,559.09c-.05.83-.67,1.39-1,2-1.71,2.92-3.26,5.93-5.09,8.78-.24.37-.41.32-.68.36"/><path class="cls-15" d="M287,559.61q-2.76,4.76-5.53,9.51c-.28.48-.34,1.2-1.15,1.16"/><path class="cls-15" d="M365.67,559.61c-1.84,3.21-3.67,6.44-5.55,9.63-.25.43-.36,1.14-1.14,1"/><path class="cls-15" d="M319.9,581.34c-.55,0-.68.33-.93.76-1.75,3.07-3.57,6.1-5.38,9.14a2.44,2.44,0,0,0-.38,1.55"/><path class="cls-15" d="M339.57,559.09c-1,2.5-2.67,4.66-3.87,7.06-.6,1.2-1.37,2.32-2,3.48-.21.37-.37.75-.91.64"/><path class="cls-15" d="M293,580.05c.26,1.3-.47,2.31-1,3.34-1.51,2.72-3,5.42-4.64,8.09a2.39,2.39,0,0,0-.36,1.3"/></g><g class="cls-14"><line class="cls-16" x1="226.55" y1="631.76" x2="421.45" y2="631.76"/><rect class="cls-4" x="391.03" y="620.9" width="20.93" height="20.93" rx="5" ry="5"/></g></g></svg>