<svg id="Layer_1" data-name="Layer 1" xmlns="http://www.w3.org/2000/svg" viewBox="0 0 155 155"><defs><style>.cls-1,.cls-2{fill:none;stroke:#fff;stroke-width:3px;}.cls-1{stroke-miterlimit:10;}.cls-2{stroke-linecap:round;stroke-linejoin:round;}</style></defs><title>noise</title><circle class="cls-1" cx="77.5" cy="77.5" r="75"/><line class="cls-2" x1="111.54" y1="89.46" x2="135.46" y2="65.54"/><line class="cls-2" x1="135.46" y1="89.46" x2="111.54" y2="65.54"/><path class="cls-1" d="M94.08,77.33q0,24.25,0,48.51a18.68,18.68,0,0,1-.11,2.22c-.42,3.51-3.24,5.5-6.61,4.44a16.43,16.43,0,0,1-4.71-2.41c-12-8.86-24-17.79-36-26.67a3.55,3.55,0,0,0-1.91-.63c-3.52-.08-7.05.08-10.56-.14A12.08,12.08,0,0,1,23,90.77q-.1-13.07,0-26.15A12.16,12.16,0,0,1,34.9,52.55c3.22-.08,6.45,0,9.68-.06a3.9,3.9,0,0,0,2.1-.7q18-13.39,36-26.84a12,12,0,0,1,5.89-2.69A4.63,4.63,0,0,1,94,26.49a15.66,15.66,0,0,1,.11,2Q94.08,52.91,94.08,77.33Z"/></svg>