<svg id="Layer_1" data-name="Layer 1" xmlns="http://www.w3.org/2000/svg" viewBox="0 0 155 155"><defs><style>.cls-1,.cls-2{fill:none;stroke:#fff;stroke-miterlimit:10;stroke-width:3px;}.cls-2{stroke-linecap:round;}</style></defs><title>vibration</title><circle class="cls-1" cx="77.5" cy="77.5" r="75"/><circle class="cls-1" cx="77.17" cy="77.5" r="42.25"/><line class="cls-2" x1="77.17" y1="77.5" x2="100.01" y2="77.5"/><line class="cls-2" x1="77.17" y1="77.5" x2="77.17" y2="48.95"/><path class="cls-2" d="M24.78,58.19,20.35,63a3,3,0,0,0,0,4l2.81,3a2.61,2.61,0,0,1,0,3.53l-3,3.25a2.65,2.65,0,0,0,0,3.6l2.62,2.85a2.36,2.36,0,0,1,0,3.2l-2,2.16a2.82,2.82,0,0,0,0,3.83l4,4.33"/><path class="cls-2" d="M130.22,58.19,134.65,63a3,3,0,0,1,0,4l-2.81,3a2.61,2.61,0,0,0,0,3.53l3,3.25a2.65,2.65,0,0,1,0,3.6l-2.62,2.85a2.36,2.36,0,0,0,0,3.2l2,2.16a2.82,2.82,0,0,1,0,3.83l-4,4.33"/></svg>